<svg xmlns="http://www.w3.org/2000/svg" viewBox="0 0 24 24" width="24" height="24" fill="currentColor" class="x14rh7hd" style="--x-color: rgb(var(--ig-secondary-icon));"><title>Tagged</title><path d="M10.201 3.797 12 1.997l1.799 1.8a1.59 1.59 0 0 0 1.124.465h5.259A1.818 1.818 0 0 1 22 6.08v14.104a1.818 1.818 0 0 1-1.818 1.818H3.818A1.818 1.818 0 0 1 2 20.184V6.08a1.818 1.818 0 0 1 1.818-1.818h5.26a1.59 1.59 0 0 0 1.123-.465z" fill="none" stroke="currentColor" stroke-linecap="round" stroke-linejoin="round" stroke-width="2px"/><g stroke="currentColor" stroke-linecap="round" stroke-linejoin="round" stroke-width="2px"><path d="M18.598 22.002V21.4a3.949 3.949 0 0 0-3.948-3.949H9.495A3.949 3.949 0 0 0 5.546 21.4v.603" fill="none"/><circle cx="12.07211" cy="11.07515" r="3.55556" fill="none"/></g></svg>